<svg version="1.1" id="Layer_1" xmlns="http://www.w3.org/2000/svg" xmlns:xlink="http://www.w3.org/1999/xlink" x="0px" y="0px"
	 width="100%" viewBox="0 0 1494 1490" enable-background="new 0 0 1494 1490" xml:space="preserve">
<path fill="#030076" opacity="1.000000" stroke="none" 
	d="
M994.000000,1491.000000 
	C662.666748,1491.000000 331.833466,1491.000000 1.000133,1491.000000 
	C1.000089,994.333496 1.000089,497.666962 1.000044,1.000333 
	C498.999756,1.000222 996.999512,1.000222 1494.999512,1.000111 
	C1494.999634,497.666351 1494.999634,994.332703 1494.999756,1490.999512 
	C1328.166626,1491.000000 1161.333374,1491.000000 994.000000,1491.000000 
M1112.451660,799.988953 
	C1109.317871,800.367432 1106.174805,800.682495 1103.051636,801.134338 
	C1080.220215,804.437683 1057.398315,807.807922 1034.562256,811.078674 
	C1015.007812,813.879395 995.431335,816.526123 975.877747,819.332581 
	C956.157227,822.162903 936.461670,825.167297 916.739075,827.982605 
	C897.008179,830.799011 877.248962,833.417419 857.517456,836.229553 
	C835.000854,839.438660 812.508545,842.818604 789.991699,846.025696 
	C770.433167,848.811340 750.843933,851.382202 731.288696,854.190063 
	C711.572510,857.021240 691.895508,860.126343 672.175903,862.932739 
	C645.381042,866.746216 618.553223,870.328552 591.755920,874.125244 
	C568.913452,877.361572 546.100464,880.805664 523.262451,884.074036 
	C503.866058,886.849915 484.443695,889.444214 465.049164,892.232544 
	C445.327728,895.067932 425.633118,898.089722 405.914459,900.944641 
	C378.145752,904.965088 350.386902,909.069031 322.569611,912.724426 
	C317.876038,913.341187 317.423706,915.298035 317.466034,919.092896 
	C317.666626,937.087402 317.724274,955.083862 317.747467,973.079773 
	C317.841461,1046.067871 317.904053,1119.056030 317.977936,1192.044189 
	C317.979858,1193.942383 317.978180,1195.840698 317.978180,1198.109375 
	C329.489105,1196.395630 340.153656,1194.825806 350.811462,1193.211792 
	C354.864227,1192.598022 358.283478,1192.989868 361.896423,1195.778564 
	C396.425232,1222.430176 431.138031,1248.843384 465.805603,1275.315063 
	C468.147186,1277.103027 470.550659,1278.809937 473.591156,1281.043701 
	C474.469513,1279.774780 475.019867,1278.708862 475.812561,1277.872925 
	C512.370422,1239.321777 548.930359,1200.772339 585.592468,1162.320435 
	C587.152893,1160.683716 589.574890,1159.291138 591.779602,1158.940186 
	C605.551025,1156.746826 619.379883,1154.916748 633.180298,1152.902100 
	C662.574158,1148.611206 691.954407,1144.227417 721.354858,1139.982544 
	C747.647888,1136.186401 773.970337,1132.594116 800.261902,1128.788452 
	C833.780457,1123.937012 867.270569,1118.889038 900.792603,1114.062378 
	C927.410522,1110.229858 954.071411,1106.695679 980.688477,1102.857788 
	C1007.139526,1099.044067 1033.546387,1094.923584 1059.997314,1091.108398 
	C1086.622925,1087.267944 1113.287354,1083.696533 1139.919189,1079.898071 
	C1164.898315,1076.335327 1189.847900,1072.563110 1214.834106,1069.050903 
	C1219.100098,1068.451294 1220.880737,1067.122070 1220.876587,1062.294189 
	C1220.798950,971.809937 1220.932373,881.325500 1221.021240,790.841064 
	C1221.023071,788.904297 1221.021362,786.967529 1221.021362,784.802795 
	C1218.696167,784.993103 1217.030396,785.044495 1215.390381,785.277100 
	C1202.076294,787.165161 1188.766724,789.086304 1175.456055,790.999329 
	C1154.748413,793.975403 1134.040894,796.952820 1112.451660,799.988953 
M790.018616,637.500000 
	C790.018616,689.294739 790.018616,741.089539 790.018616,793.210999 
	C792.500000,793.055542 794.481628,793.059509 796.425171,792.789673 
	C815.177734,790.185974 833.932068,787.592346 852.669922,784.885620 
	C876.986145,781.373230 901.258423,777.533264 925.619080,774.369202 
	C930.917480,773.681030 932.010742,771.916443 931.999451,766.985413 
	C931.871094,710.820496 931.888245,654.654968 932.037537,598.489990 
	C932.095520,576.666321 933.627869,554.941650 938.910095,533.665100 
	C944.074707,512.862366 953.579224,494.814331 972.327087,482.939972 
	C986.531738,473.943085 1002.298401,469.556000 1018.862000,468.108826 
	C1029.002197,467.222870 1039.181641,467.524506 1048.710938,471.985931 
	C1062.142090,478.274139 1068.204956,490.105835 1071.693848,503.509216 
	C1077.012451,523.942383 1077.882568,544.917542 1077.922119,565.885254 
	C1078.035522,626.050537 1077.901245,686.216248 1077.864746,746.381836 
	C1077.863525,748.271484 1077.864624,750.161133 1077.864624,752.571777 
	C1125.086792,745.846130 1171.375000,739.253479 1217.486938,732.685974 
	C1217.734009,731.590576 1217.924194,731.113647 1217.938354,730.631470 
	C1218.967285,695.660645 1220.690552,660.691895 1220.812500,625.717590 
	C1220.953003,585.424500 1220.196899,545.109009 1218.841309,504.836517 
	C1217.884399,476.411011 1213.865601,448.241516 1205.986328,420.799622 
	C1200.917480,403.146118 1194.592529,385.915009 1181.657471,372.276001 
	C1157.959717,347.288544 1127.743408,336.561493 1094.234009,334.117004 
	C1077.273682,332.879700 1060.348511,334.302704 1043.668579,338.042969 
	C997.460754,348.404633 958.948181,371.319763 928.882324,408.109619 
	C928.249573,408.884003 927.360840,409.449310 925.921570,410.689423 
	C925.921570,395.936279 925.921570,382.142944 925.921570,367.742737 
	C880.409119,374.152588 835.318726,380.502991 790.018555,386.882965 
	C790.018555,470.534729 790.018555,553.517334 790.018616,637.500000 
M338.467377,858.013184 
	C353.267609,855.973389 368.079712,854.015625 382.865387,851.875244 
	C407.010742,848.379944 431.113251,844.572571 455.296112,841.366211 
	C460.066772,840.733765 461.143890,839.292053 461.137115,834.723572 
	C460.996216,739.914001 461.020813,645.104187 461.012756,550.294434 
	C461.012573,548.313477 461.012756,546.332520 461.012756,543.929810 
	C464.075500,543.533752 466.842712,543.209595 469.599640,542.814026 
	C492.438446,539.536621 515.257874,536.114075 538.128662,533.078430 
	C542.359619,532.516968 543.611877,531.199036 543.583252,526.940735 
	C543.357971,493.451111 543.384949,459.959808 543.313293,426.469086 
	C543.310181,425.033295 543.100769,423.597961 542.947876,421.660553 
	C515.151672,425.555634 487.806488,429.387512 458.958679,433.429962 
	C459.782867,421.001648 459.778015,409.506104 461.490784,398.272491 
	C463.485657,385.189117 474.387054,381.243713 485.476288,379.195557 
	C502.434784,376.063416 519.510315,373.466309 536.620728,371.315155 
	C541.811035,370.662628 542.752197,368.788300 542.723083,364.146027 
	C542.476807,324.826447 542.447693,285.505493 542.335449,246.184998 
	C542.330872,244.569077 542.149292,242.953644 542.051636,241.361786 
	C541.233093,241.146957 540.774902,240.943726 540.306152,240.915497 
	C502.710724,238.652222 465.907166,242.515396 430.565521,256.117859 
	C387.197815,272.809387 354.777496,301.646240 335.344818,344.221527 
	C321.203735,375.203400 316.633636,408.082367 317.012909,441.852356 
	C317.144928,453.606659 317.043915,453.496979 305.391083,455.088043 
	C286.026550,457.732025 266.683624,460.534119 247.396301,463.260498 
	C247.396301,500.346619 247.396301,537.045959 247.396301,574.023438 
	C271.260132,570.669189 294.699188,567.374634 318.810486,563.985596 
	C318.810486,663.202942 318.810486,761.776550 318.810486,860.722595 
	C325.491333,859.767212 331.533661,858.903137 338.467377,858.013184 
M663.200134,404.856506 
	C638.561584,408.257050 613.923035,411.657623 589.159912,415.075348 
	C589.159912,550.935303 589.159912,686.384216 589.159912,822.191650 
	C597.280945,821.050537 604.831299,819.980164 612.384460,818.930176 
	C631.949585,816.210083 651.522156,813.542419 671.080078,810.771423 
	C688.990784,808.233704 706.875977,805.513611 724.796631,803.049500 
	C728.638794,802.521301 730.401367,801.535889 730.397278,796.969604 
	C730.280212,665.023682 730.346008,533.077637 730.382324,401.131622 
	C730.382812,399.356964 730.382446,397.582306 730.382446,395.265106 
	C707.749329,398.466797 685.908081,401.556488 663.200134,404.856506 
M597.204041,365.561096 
	C641.531311,359.339508 685.858582,353.117920 729.938782,346.931030 
	C729.938782,303.071655 729.938782,259.874908 729.938782,216.396713 
	C712.849304,218.663956 696.232361,220.797791 679.636719,223.085907 
	C651.027832,227.030350 622.433899,231.082886 593.828918,235.056061 
	C590.149536,235.567108 588.185181,236.709290 588.212036,241.249207 
	C588.443542,280.403839 588.353333,319.560333 588.401489,358.716217 
	C588.404663,361.305695 588.755310,363.894745 588.958435,366.676666 
	C591.811890,366.312927 594.087708,366.022827 597.204041,365.561096 
z"/>
<path fill="#7AECB6" opacity="1.000000" stroke="none" 
	d="
M1112.892578,799.959351 
	C1134.040894,796.952820 1154.748413,793.975403 1175.456055,790.999329 
	C1188.766724,789.086304 1202.076294,787.165161 1215.390381,785.277100 
	C1217.030396,785.044495 1218.696167,784.993103 1221.021362,784.802795 
	C1221.021362,786.967529 1221.023071,788.904297 1221.021240,790.841064 
	C1220.932373,881.325500 1220.798950,971.809937 1220.876587,1062.294189 
	C1220.880737,1067.122070 1219.100098,1068.451294 1214.834106,1069.050903 
	C1189.847900,1072.563110 1164.898315,1076.335327 1139.919189,1079.898071 
	C1113.287354,1083.696533 1086.622925,1087.267944 1059.997314,1091.108398 
	C1033.546387,1094.923584 1007.139526,1099.044067 980.688477,1102.857788 
	C954.071411,1106.695679 927.410522,1110.229858 900.792603,1114.062378 
	C867.270569,1118.889038 833.780457,1123.937012 800.261902,1128.788452 
	C773.970337,1132.594116 747.647888,1136.186401 721.354858,1139.982544 
	C691.954407,1144.227417 662.574158,1148.611206 633.180298,1152.902100 
	C619.379883,1154.916748 605.551025,1156.746826 591.779602,1158.940186 
	C589.574890,1159.291138 587.152893,1160.683716 585.592468,1162.320435 
	C548.930359,1200.772339 512.370422,1239.321777 475.812561,1277.872925 
	C475.019867,1278.708862 474.469513,1279.774780 473.591156,1281.043701 
	C470.550659,1278.809937 468.147186,1277.103027 465.805603,1275.315063 
	C431.138031,1248.843384 396.425232,1222.430176 361.896423,1195.778564 
	C358.283478,1192.989868 354.864227,1192.598022 350.811462,1193.211792 
	C340.153656,1194.825806 329.489105,1196.395630 317.978180,1198.109375 
	C317.978180,1195.840698 317.979858,1193.942383 317.977936,1192.044189 
	C317.904053,1119.056030 317.841461,1046.067871 317.747467,973.079773 
	C317.724274,955.083862 317.666626,937.087402 317.466034,919.092896 
	C317.423706,915.298035 317.876038,913.341187 322.569611,912.724426 
	C350.386902,909.069031 378.145752,904.965088 405.914459,900.944641 
	C425.633118,898.089722 445.327728,895.067932 465.049164,892.232544 
	C484.443695,889.444214 503.866058,886.849915 523.262451,884.074036 
	C546.100464,880.805664 568.913452,877.361572 591.755920,874.125244 
	C618.553223,870.328552 645.381042,866.746216 672.175903,862.932739 
	C691.895508,860.126343 711.572510,857.021240 731.288696,854.190063 
	C750.843933,851.382202 770.433167,848.811340 789.991699,846.025696 
	C812.508545,842.818604 835.000854,839.438660 857.517456,836.229553 
	C877.248962,833.417419 897.008179,830.799011 916.739075,827.982605 
	C936.461670,825.167297 956.157227,822.162903 975.877747,819.332581 
	C995.431335,816.526123 1015.007812,813.879395 1034.562256,811.078674 
	C1057.398315,807.807922 1080.220215,804.437683 1103.051636,801.134338 
	C1106.174805,800.682495 1109.317871,800.367432 1112.892578,799.959351 
M900.571411,1001.499634 
	C900.571411,1026.106201 900.571411,1050.712769 900.571411,1075.770508 
	C918.995239,1073.131714 936.689514,1070.483521 954.424316,1068.141968 
	C958.563477,1067.595581 960.275146,1066.474121 960.249756,1061.790894 
	C960.042480,1023.626099 960.129333,985.459473 960.203430,947.293518 
	C960.210510,943.645630 960.349548,939.916565 961.095581,936.365601 
	C964.339478,920.925659 971.665833,908.786560 988.151001,904.572815 
	C1000.934448,901.305115 1008.294434,905.393921 1012.032471,918.113281 
	C1013.142761,921.891296 1013.945129,925.919373 1013.957825,929.835815 
	C1014.090515,970.831665 1014.033875,1011.828186 1014.029541,1052.824463 
	C1014.029358,1054.780396 1014.029480,1056.736328 1014.029480,1058.950073 
	C1015.885010,1058.950073 1017.204285,1059.105713 1018.476318,1058.926392 
	C1035.244263,1056.561890 1051.991455,1054.043091 1068.778442,1051.825073 
	C1073.004028,1051.266846 1074.043335,1049.472778 1074.026489,1045.352539 
	C1073.874634,1008.187134 1073.923096,971.020691 1074.019043,933.854858 
	C1074.031494,929.044250 1074.165039,924.142395 1075.069214,919.441895 
	C1078.556274,901.312439 1086.267456,888.776611 1106.138428,887.628967 
	C1114.771851,887.130371 1121.287720,889.964966 1123.827881,898.163086 
	C1126.198364,905.813110 1127.762451,914.040466 1127.814087,922.025818 
	C1128.062378,960.352844 1127.671265,998.684021 1127.534058,1037.013794 
	C1127.527100,1038.945435 1127.769287,1040.877808 1127.915771,1043.119507 
	C1148.259399,1040.168091 1168.018921,1037.301392 1187.714600,1034.443970 
	C1187.422607,1031.013428 1186.968384,1028.383667 1187.011353,1025.761963 
	C1187.450195,998.955383 1187.945068,972.149597 1188.474365,945.344604 
	C1188.944580,921.531433 1188.568359,897.816956 1184.057007,874.270874 
	C1179.648926,851.263611 1166.739746,837.085632 1143.932129,833.037476 
	C1119.569702,828.713318 1097.872070,835.596191 1078.682983,850.798401 
	C1072.487061,855.707031 1066.599487,861.005066 1060.655762,866.052795 
	C1048.537354,849.601074 1030.099609,844.579529 1008.880432,848.169250 
	C990.283630,851.315491 974.585815,860.336975 961.565186,873.955566 
	C960.507935,875.061340 959.944214,876.638977 959.151184,877.997375 
	C958.519653,877.552734 957.888123,877.108093 957.256592,876.663513 
	C957.256592,871.595398 957.256592,866.527344 957.256592,861.079590 
	C938.114624,863.842102 919.618286,866.511353 900.571899,869.260010 
	C900.571899,913.236694 900.571899,956.868103 900.571411,1001.499634 
M739.712280,963.170166 
	C744.740295,962.432190 749.768311,961.694153 754.700317,960.970215 
	C755.011841,957.297424 754.915405,954.088745 755.601868,951.057495 
	C759.497986,933.854492 777.313782,923.310974 796.118591,926.911255 
	C804.995789,928.610901 810.228577,933.727783 810.890991,941.356323 
	C811.604736,949.576721 806.380310,957.401001 798.211609,960.134460 
	C794.916565,961.237183 791.541992,962.107849 788.188843,963.030457 
	C766.898560,968.888184 745.665833,974.911682 726.349609,986.053589 
	C695.963745,1003.580688 684.747986,1027.536987 690.948425,1061.146484 
	C694.939880,1082.782227 707.752563,1095.991333 728.947754,1101.058594 
	C747.644287,1105.528442 765.750000,1102.330811 782.790039,1094.486328 
	C793.695679,1089.465820 803.689941,1082.465210 814.095642,1076.350708 
	C815.030334,1079.307617 816.299255,1083.321777 817.685364,1087.706787 
	C838.323975,1084.732422 858.591187,1081.811523 878.103821,1078.999390 
	C875.650208,1069.379028 871.896118,1060.372559 871.310425,1051.164551 
	C870.118591,1032.425171 870.372070,1013.575012 870.514954,994.774170 
	C870.704529,969.831543 872.751953,944.880493 869.049927,919.999573 
	C866.808960,904.938171 860.709167,892.794739 845.801636,886.682434 
	C841.970764,885.111694 838.231262,883.237244 834.287170,882.036987 
	C814.537231,876.026855 794.547424,876.327332 774.695435,881.093811 
	C747.920227,887.522583 724.729004,900.016479 708.574829,923.197876 
	C699.078796,936.824768 695.111206,952.171875 695.178040,969.550049 
	C710.069336,967.419495 724.455139,965.361267 739.712280,963.170166 
M479.637573,1065.760254 
	C489.924011,1103.325073 519.877686,1125.847778 553.754089,1128.833130 
	C592.514709,1132.248779 623.470032,1116.519653 647.352295,1086.597046 
	C670.390381,1057.732300 678.780945,1024.396729 675.007874,987.950134 
	C670.185120,941.364258 634.175964,908.239685 588.147034,908.256348 
	C560.610962,908.266357 536.626892,918.410828 517.112122,937.551636 
	C481.096710,972.876709 469.552551,1015.879272 479.637573,1065.760254 
M424.485260,1006.058411 
	C435.422302,989.986084 451.465485,986.242188 469.536621,987.409485 
	C472.472137,987.599060 475.404449,987.838684 478.474243,988.065186 
	C478.694580,986.927246 478.921143,986.300476 478.922058,985.673523 
	C478.948303,967.348450 478.906097,949.023132 479.007233,930.698547 
	C479.022949,927.844971 477.853058,927.116333 475.216034,926.805237 
	C457.965973,924.770386 442.963959,930.441101 429.792572,940.857849 
	C422.352539,946.741821 416.011139,954.014893 408.892395,960.936951 
	C408.892395,954.071716 408.892395,947.060852 408.892395,939.898010 
	C406.410095,940.024048 404.564240,939.972107 402.763489,940.232239 
	C387.809387,942.392090 372.895416,944.876953 357.897705,946.661682 
	C352.785339,947.270020 351.370209,948.963196 351.388794,954.044434 
	C351.626312,1019.014343 351.634399,1083.984985 351.713562,1148.955566 
	C351.715729,1150.743408 351.860443,1152.531006 351.952026,1154.622925 
	C370.657623,1151.999268 388.887054,1149.421021 407.125061,1146.904663 
	C410.227081,1146.476807 411.818329,1145.049805 411.758881,1141.755249 
	C411.689758,1137.927979 411.955597,1134.096069 411.959106,1130.265991 
	C411.983765,1103.299072 411.470581,1076.318848 412.182281,1049.370605 
	C412.577881,1034.392090 416.029358,1019.758606 424.485260,1006.058411 
z"/>
<path fill="#7AECB7" opacity="1.000000" stroke="none" 
	d="
M790.018555,637.000000 
	C790.018555,553.517334 790.018555,470.534729 790.018555,386.882965 
	C835.318726,380.502991 880.409119,374.152588 925.921570,367.742737 
	C925.921570,382.142944 925.921570,395.936279 925.921570,410.689423 
	C927.360840,409.449310 928.249573,408.884003 928.882324,408.109619 
	C958.948181,371.319763 997.460754,348.404633 1043.668579,338.042969 
	C1060.348511,334.302704 1077.273682,332.879700 1094.234009,334.117004 
	C1127.743408,336.561493 1157.959717,347.288544 1181.657471,372.276001 
	C1194.592529,385.915009 1200.917480,403.146118 1205.986328,420.799622 
	C1213.865601,448.241516 1217.884399,476.411011 1218.841309,504.836517 
	C1220.196899,545.109009 1220.953003,585.424500 1220.812500,625.717590 
	C1220.690552,660.691895 1218.967285,695.660645 1217.938354,730.631470 
	C1217.924194,731.113647 1217.734009,731.590576 1217.486938,732.685974 
	C1171.375000,739.253479 1125.086792,745.846130 1077.864624,752.571777 
	C1077.864624,750.161133 1077.863525,748.271484 1077.864746,746.381836 
	C1077.901245,686.216248 1078.035522,626.050537 1077.922119,565.885254 
	C1077.882568,544.917542 1077.012451,523.942383 1071.693848,503.509216 
	C1068.204956,490.105835 1062.142090,478.274139 1048.710938,471.985931 
	C1039.181641,467.524506 1029.002197,467.222870 1018.862000,468.108826 
	C1002.298401,469.556000 986.531738,473.943085 972.327087,482.939972 
	C953.579224,494.814331 944.074707,512.862366 938.910095,533.665100 
	C933.627869,554.941650 932.095520,576.666321 932.037537,598.489990 
	C931.888245,654.654968 931.871094,710.820496 931.999451,766.985413 
	C932.010742,771.916443 930.917480,773.681030 925.619080,774.369202 
	C901.258423,777.533264 876.986145,781.373230 852.669922,784.885620 
	C833.932068,787.592346 815.177734,790.185974 796.425171,792.789673 
	C794.481628,793.059509 792.500000,793.055542 790.018616,793.210999 
	C790.018616,741.089539 790.018616,689.294739 790.018555,637.000000 
z"/>
<path fill="#7AECB7" opacity="1.000000" stroke="none" 
	d="
M338.021667,858.026123 
	C331.533661,858.903137 325.491333,859.767212 318.810486,860.722595 
	C318.810486,761.776550 318.810486,663.202942 318.810486,563.985596 
	C294.699188,567.374634 271.260132,570.669189 247.396301,574.023438 
	C247.396301,537.045959 247.396301,500.346619 247.396301,463.260498 
	C266.683624,460.534119 286.026550,457.732025 305.391083,455.088043 
	C317.043915,453.496979 317.144928,453.606659 317.012909,441.852356 
	C316.633636,408.082367 321.203735,375.203400 335.344818,344.221527 
	C354.777496,301.646240 387.197815,272.809387 430.565521,256.117859 
	C465.907166,242.515396 502.710724,238.652222 540.306152,240.915497 
	C540.774902,240.943726 541.233093,241.146957 542.051636,241.361786 
	C542.149292,242.953644 542.330872,244.569077 542.335449,246.184998 
	C542.447693,285.505493 542.476807,324.826447 542.723083,364.146027 
	C542.752197,368.788300 541.811035,370.662628 536.620728,371.315155 
	C519.510315,373.466309 502.434784,376.063416 485.476288,379.195557 
	C474.387054,381.243713 463.485657,385.189117 461.490784,398.272491 
	C459.778015,409.506104 459.782867,421.001648 458.958679,433.429962 
	C487.806488,429.387512 515.151672,425.555634 542.947876,421.660553 
	C543.100769,423.597961 543.310181,425.033295 543.313293,426.469086 
	C543.384949,459.959808 543.357971,493.451111 543.583252,526.940735 
	C543.611877,531.199036 542.359619,532.516968 538.128662,533.078430 
	C515.257874,536.114075 492.438446,539.536621 469.599640,542.814026 
	C466.842712,543.209595 464.075500,543.533752 461.012756,543.929810 
	C461.012756,546.332520 461.012573,548.313477 461.012756,550.294434 
	C461.020813,645.104187 460.996216,739.914001 461.137115,834.723572 
	C461.143890,839.292053 460.066772,840.733765 455.296112,841.366211 
	C431.113251,844.572571 407.010742,848.379944 382.865387,851.875244 
	C368.079712,854.015625 353.267609,855.973389 338.021667,858.026123 
z"/>
<path fill="#7AEDB7" opacity="1.000000" stroke="none" 
	d="
M663.633484,404.751343 
	C685.908081,401.556488 707.749329,398.466797 730.382446,395.265106 
	C730.382446,397.582306 730.382812,399.356964 730.382324,401.131622 
	C730.346008,533.077637 730.280212,665.023682 730.397278,796.969604 
	C730.401367,801.535889 728.638794,802.521301 724.796631,803.049500 
	C706.875977,805.513611 688.990784,808.233704 671.080078,810.771423 
	C651.522156,813.542419 631.949585,816.210083 612.384460,818.930176 
	C604.831299,819.980164 597.280945,821.050537 589.159912,822.191650 
	C589.159912,686.384216 589.159912,550.935303 589.159912,415.075348 
	C613.923035,411.657623 638.561584,408.257050 663.633484,404.751343 
z"/>
<path fill="#7AECB6" opacity="1.000000" stroke="none" 
	d="
M596.783813,365.646912 
	C594.087708,366.022827 591.811890,366.312927 588.958435,366.676666 
	C588.755310,363.894745 588.404663,361.305695 588.401489,358.716217 
	C588.353333,319.560333 588.443542,280.403839 588.212036,241.249207 
	C588.185181,236.709290 590.149536,235.567108 593.828918,235.056061 
	C622.433899,231.082886 651.027832,227.030350 679.636719,223.085907 
	C696.232361,220.797791 712.849304,218.663956 729.938782,216.396713 
	C729.938782,259.874908 729.938782,303.071655 729.938782,346.931030 
	C685.858582,353.117920 641.531311,359.339508 596.783813,365.646912 
z"/>
<path fill="#030176" opacity="1.000000" stroke="none" 
	d="
M900.571655,1000.999573 
	C900.571899,956.868103 900.571899,913.236694 900.571899,869.260010 
	C919.618286,866.511353 938.114624,863.842102 957.256592,861.079590 
	C957.256592,866.527344 957.256592,871.595398 957.256592,876.663513 
	C957.888123,877.108093 958.519653,877.552734 959.151184,877.997375 
	C959.944214,876.638977 960.507935,875.061340 961.565186,873.955566 
	C974.585815,860.336975 990.283630,851.315491 1008.880432,848.169250 
	C1030.099609,844.579529 1048.537354,849.601074 1060.655762,866.052795 
	C1066.599487,861.005066 1072.487061,855.707031 1078.682983,850.798401 
	C1097.872070,835.596191 1119.569702,828.713318 1143.932129,833.037476 
	C1166.739746,837.085632 1179.648926,851.263611 1184.057007,874.270874 
	C1188.568359,897.816956 1188.944580,921.531433 1188.474365,945.344604 
	C1187.945068,972.149597 1187.450195,998.955383 1187.011353,1025.761963 
	C1186.968384,1028.383667 1187.422607,1031.013428 1187.714600,1034.443970 
	C1168.018921,1037.301392 1148.259399,1040.168091 1127.915771,1043.119507 
	C1127.769287,1040.877808 1127.527100,1038.945435 1127.534058,1037.013794 
	C1127.671265,998.684021 1128.062378,960.352844 1127.814087,922.025818 
	C1127.762451,914.040466 1126.198364,905.813110 1123.827881,898.163086 
	C1121.287720,889.964966 1114.771851,887.130371 1106.138428,887.628967 
	C1086.267456,888.776611 1078.556274,901.312439 1075.069214,919.441895 
	C1074.165039,924.142395 1074.031494,929.044250 1074.019043,933.854858 
	C1073.923096,971.020691 1073.874634,1008.187134 1074.026489,1045.352539 
	C1074.043335,1049.472778 1073.004028,1051.266846 1068.778442,1051.825073 
	C1051.991455,1054.043091 1035.244263,1056.561890 1018.476318,1058.926392 
	C1017.204285,1059.105713 1015.885010,1058.950073 1014.029480,1058.950073 
	C1014.029480,1056.736328 1014.029358,1054.780396 1014.029541,1052.824463 
	C1014.033875,1011.828186 1014.090515,970.831665 1013.957825,929.835815 
	C1013.945129,925.919373 1013.142761,921.891296 1012.032471,918.113281 
	C1008.294434,905.393921 1000.934448,901.305115 988.151001,904.572815 
	C971.665833,908.786560 964.339478,920.925659 961.095581,936.365601 
	C960.349548,939.916565 960.210510,943.645630 960.203430,947.293518 
	C960.129333,985.459473 960.042480,1023.626099 960.249756,1061.790894 
	C960.275146,1066.474121 958.563477,1067.595581 954.424316,1068.141968 
	C936.689514,1070.483521 918.995239,1073.131714 900.571411,1075.770508 
	C900.571411,1050.712769 900.571411,1026.106201 900.571655,1000.999573 
z"/>
<path fill="#030176" opacity="1.000000" stroke="none" 
	d="
M739.276611,963.236572 
	C724.455139,965.361267 710.069336,967.419495 695.178040,969.550049 
	C695.111206,952.171875 699.078796,936.824768 708.574829,923.197876 
	C724.729004,900.016479 747.920227,887.522583 774.695435,881.093811 
	C794.547424,876.327332 814.537231,876.026855 834.287170,882.036987 
	C838.231262,883.237244 841.970764,885.111694 845.801636,886.682434 
	C860.709167,892.794739 866.808960,904.938171 869.049927,919.999573 
	C872.751953,944.880493 870.704529,969.831543 870.514954,994.774170 
	C870.372070,1013.575012 870.118591,1032.425171 871.310425,1051.164551 
	C871.896118,1060.372559 875.650208,1069.379028 878.103821,1078.999390 
	C858.591187,1081.811523 838.323975,1084.732422 817.685364,1087.706787 
	C816.299255,1083.321777 815.030334,1079.307617 814.095642,1076.350708 
	C803.689941,1082.465210 793.695679,1089.465820 782.790039,1094.486328 
	C765.750000,1102.330811 747.644287,1105.528442 728.947754,1101.058594 
	C707.752563,1095.991333 694.939880,1082.782227 690.948425,1061.146484 
	C684.747986,1027.536987 695.963745,1003.580688 726.349609,986.053589 
	C745.665833,974.911682 766.898560,968.888184 788.188843,963.030457 
	C791.541992,962.107849 794.916565,961.237183 798.211609,960.134460 
	C806.380310,957.401001 811.604736,949.576721 810.890991,941.356323 
	C810.228577,933.727783 804.995789,928.610901 796.118591,926.911255 
	C777.313782,923.310974 759.497986,933.854492 755.601868,951.057495 
	C754.915405,954.088745 755.011841,957.297424 754.700317,960.970215 
	C749.768311,961.694153 744.740295,962.432190 739.276611,963.236572 
M791.907166,1047.527954 
	C808.126953,1039.194214 812.638428,1016.229797 810.105652,997.513611 
	C805.197388,999.399597 800.343323,1001.480286 795.348267,1003.135742 
	C787.014832,1005.897583 778.539001,1008.232117 770.219543,1011.033020 
	C760.943115,1014.156067 754.166382,1020.037476 750.554016,1029.427734 
	C746.513550,1039.930664 750.102722,1047.625854 760.876770,1051.130737 
	C771.515930,1054.591797 781.517090,1052.566040 791.907166,1047.527954 
z"/>
<path fill="#030176" opacity="1.000000" stroke="none" 
	d="
M479.485840,1065.376953 
	C469.552551,1015.879272 481.096710,972.876709 517.112122,937.551636 
	C536.626892,918.410828 560.610962,908.266357 588.147034,908.256348 
	C634.175964,908.239685 670.185120,941.364258 675.007874,987.950134 
	C678.780945,1024.396729 670.390381,1057.732300 647.352295,1086.597046 
	C623.470032,1116.519653 592.514709,1132.248779 553.754089,1128.833130 
	C519.877686,1125.847778 489.924011,1103.325073 479.485840,1065.376953 
M598.436523,1065.947144 
	C607.652405,1057.076538 610.929749,1045.338623 613.626221,1033.492065 
	C618.038513,1014.106995 616.987732,995.185486 607.179626,977.384094 
	C603.224487,970.205688 598.086426,964.163879 589.680969,962.130249 
	C573.958557,958.326416 560.993652,962.913940 551.413025,975.876648 
	C538.874390,992.841370 535.151123,1012.371338 536.257935,1032.986816 
	C536.540344,1038.247803 538.209900,1043.420288 538.975098,1048.672363 
	C540.453735,1058.820801 545.137634,1066.818359 554.106262,1072.065308 
	C568.065613,1080.232056 583.701782,1078.213257 598.436523,1065.947144 
z"/>
<path fill="#030176" opacity="1.000000" stroke="none" 
	d="
M424.278381,1006.358704 
	C416.029358,1019.758606 412.577881,1034.392090 412.182281,1049.370605 
	C411.470581,1076.318848 411.983765,1103.299072 411.959106,1130.265991 
	C411.955597,1134.096069 411.689758,1137.927979 411.758881,1141.755249 
	C411.818329,1145.049805 410.227081,1146.476807 407.125061,1146.904663 
	C388.887054,1149.421021 370.657623,1151.999268 351.952026,1154.622925 
	C351.860443,1152.531006 351.715729,1150.743408 351.713562,1148.955566 
	C351.634399,1083.984985 351.626312,1019.014343 351.388794,954.044434 
	C351.370209,948.963196 352.785339,947.270020 357.897705,946.661682 
	C372.895416,944.876953 387.809387,942.392090 402.763489,940.232239 
	C404.564240,939.972107 406.410095,940.024048 408.892395,939.898010 
	C408.892395,947.060852 408.892395,954.071716 408.892395,960.936951 
	C416.011139,954.014893 422.352539,946.741821 429.792572,940.857849 
	C442.963959,930.441101 457.965973,924.770386 475.216034,926.805237 
	C477.853058,927.116333 479.022949,927.844971 479.007233,930.698547 
	C478.906097,949.023132 478.948303,967.348450 478.922058,985.673523 
	C478.921143,986.300476 478.694580,986.927246 478.474243,988.065186 
	C475.404449,987.838684 472.472137,987.599060 469.536621,987.409485 
	C451.465485,986.242188 435.422302,989.986084 424.278381,1006.358704 
z"/>
<path fill="#79EAB6" opacity="1.000000" stroke="none" 
	d="
M791.587097,1047.719116 
	C781.517090,1052.566040 771.515930,1054.591797 760.876770,1051.130737 
	C750.102722,1047.625854 746.513550,1039.930664 750.554016,1029.427734 
	C754.166382,1020.037476 760.943115,1014.156067 770.219543,1011.033020 
	C778.539001,1008.232117 787.014832,1005.897583 795.348267,1003.135742 
	C800.343323,1001.480286 805.197388,999.399597 810.105652,997.513611 
	C812.638428,1016.229797 808.126953,1039.194214 791.587097,1047.719116 
z"/>
<path fill="#7AECB6" opacity="1.000000" stroke="none" 
	d="
M598.178345,1066.195435 
	C583.701782,1078.213257 568.065613,1080.232056 554.106262,1072.065308 
	C545.137634,1066.818359 540.453735,1058.820801 538.975098,1048.672363 
	C538.209900,1043.420288 536.540344,1038.247803 536.257935,1032.986816 
	C535.151123,1012.371338 538.874390,992.841370 551.413025,975.876648 
	C560.993652,962.913940 573.958557,958.326416 589.680969,962.130249 
	C598.086426,964.163879 603.224487,970.205688 607.179626,977.384094 
	C616.987732,995.185486 618.038513,1014.106995 613.626221,1033.492065 
	C610.929749,1045.338623 607.652405,1057.076538 598.178345,1066.195435 
z"/>
</svg>